<svg xmlns="http://www.w3.org/2000/svg" viewBox="0 0 120 180">
  <rect width="120" height="180" rx="10" fill="#2b2622"/>
  <rect x="12" y="12" width="96" height="156" rx="8" fill="#3a332c"/>
  <path d="M25 35 C20 25,35 20,40 30 C45 20,60 25,55 35 C60 45,45 50,40 40 C35 50,20 45,25 35 Z" fill="#dfd1b2"/>
  <path d="M65 80 C60 70,75 65,80 75 C85 65,100 70,95 80 C100 90,85 95,80 85 C75 95,60 90,65 80 Z" fill="#dfd1b2"/>
  <path d="M35 125 C30 115,45 110,50 120 C55 110,70 115,65 125 C70 135,55 140,50 130 C45 140,30 135,35 125 Z" fill="#dfd1b2"/>
  <circle cx="88" cy="92" r="4" fill="#f7eecf"/>
</svg>
